<svg width="35" height="35" viewBox="0 0 35 35" fill="none" xmlns="http://www.w3.org/2000/svg">
<path d="M35 17.5C35 27.165 27.165 35 17.5 35C7.83502 35 0 27.165 0 17.5C0 7.83502 7.83502 0 17.5 0C27.165 0 35 7.83502 35 17.5Z" fill="url(#paint0_linear_3415_71)"/>
<path d="M4.97266 24.0742L5.86328 21.0977C6.88672 21.7383 8.05078 22.0586 9.35547 22.0586C9.93359 22.0586 10.3828 21.9766 10.7031 21.8125C11.0234 21.6406 11.1836 21.3984 11.1836 21.0859C11.1836 20.9219 11.1367 20.7852 11.043 20.6758C10.9492 20.5586 10.8008 20.4609 10.5977 20.3828C10.3945 20.3047 10.1836 20.2383 9.96484 20.1836C9.75391 20.1289 9.47266 20.0586 9.12109 19.9727C8.77734 19.8789 8.46875 19.7852 8.19531 19.6914C7.16406 19.3398 6.39453 18.8711 5.88672 18.2852C5.37891 17.6992 5.125 16.9492 5.125 16.0352C5.125 14.793 5.58594 13.8125 6.50781 13.0938C7.4375 12.375 8.69141 12.0156 10.2695 12.0156C11.1523 12.0156 11.9922 12.1328 12.7891 12.3672C13.5859 12.5938 14.2656 12.9102 14.8281 13.3164L13.7148 15.9648C13.2461 15.6914 12.7031 15.4727 12.0859 15.3086C11.4688 15.1445 10.9062 15.0625 10.3984 15.0625C9.9375 15.0625 9.57812 15.1406 9.32031 15.2969C9.07031 15.4453 8.94531 15.6602 8.94531 15.9414C8.94531 16.0273 8.95312 16.1055 8.96875 16.1758C8.99219 16.2383 9.03125 16.3008 9.08594 16.3633C9.14062 16.4258 9.19531 16.4805 9.25 16.5273C9.30469 16.5664 9.38672 16.6133 9.49609 16.668C9.60547 16.7148 9.69922 16.7539 9.77734 16.7852C9.86328 16.8164 9.98438 16.8555 10.1406 16.9023C10.3047 16.9492 10.4414 16.9883 10.5508 17.0195C10.668 17.0508 10.8281 17.0938 11.0312 17.1484C11.2422 17.2031 11.418 17.25 11.5586 17.2891C12.7539 17.625 13.6484 18.0742 14.2422 18.6367C14.8359 19.1914 15.1328 19.9766 15.1328 20.9922C15.1328 22.4062 14.625 23.4961 13.6094 24.2617C12.5938 25.0273 11.2812 25.4102 9.67188 25.4102C8.72656 25.4102 7.83594 25.2812 7 25.0234C6.16406 24.7656 5.48828 24.4492 4.97266 24.0742Z" fill="white"/>
<path d="M21.1562 13.4336H21.2266C22.0234 12.4883 23.1094 12.0156 24.4844 12.0156C26.0469 12.0156 27.3125 12.5859 28.2812 13.7266C29.2578 14.8672 29.7461 16.4609 29.7461 18.5078C29.7461 20.6094 29.207 22.2852 28.1289 23.5352C27.0508 24.7852 25.6641 25.4102 23.9688 25.4102C22.5391 25.4102 21.3828 24.8594 20.5 23.7578H20.3711L19.75 25H17.1953V6.95312H21.1562V13.4336ZM21.1562 16.5859V21.1211C21.6406 21.6523 22.3008 21.918 23.1367 21.918C23.9258 21.918 24.5508 21.6172 25.0117 21.0156C25.4805 20.4141 25.7148 19.6055 25.7148 18.5898C25.7148 17.6445 25.4922 16.918 25.0469 16.4102C24.6094 15.8945 24.0117 15.6367 23.2539 15.6367C22.4492 15.6367 21.75 15.9531 21.1562 16.5859Z" fill="white"/>
<defs>
<linearGradient id="paint0_linear_3415_71" x1="17.5" y1="0" x2="17.5" y2="35" gradientUnits="userSpaceOnUse">
<stop stop-color="#2B5334"/>
<stop offset="1" stop-color="#61F091"/>
</linearGradient>
</defs>
</svg>
